<svg width="132" height="50" viewBox="0 0 132 50" fill="none" xmlns="http://www.w3.org/2000/svg">
<path d="M70.0234 8.19898H66.7536C66.7304 7.94376 66.6686 7.71224 66.5681 7.50442C66.4715 7.2966 66.3362 7.11795 66.1623 6.96847C65.9922 6.81534 65.7855 6.69867 65.542 6.61845C65.2985 6.5346 65.0221 6.49267 64.7129 6.49267C64.1718 6.49267 63.7138 6.61663 63.3389 6.86456C62.9679 7.11248 62.6858 7.46796 62.4925 7.931C62.3031 8.39404 62.2085 8.95004 62.2085 9.59902C62.2085 10.2845 62.3051 10.8587 62.4983 11.3217C62.6954 11.7811 62.9795 12.1275 63.3505 12.3608C63.7216 12.5905 64.168 12.7054 64.6897 12.7054C64.9873 12.7054 65.254 12.6707 65.4898 12.6015C65.7255 12.5286 65.9304 12.4246 66.1043 12.2897C66.2782 12.1548 66.4193 11.9926 66.5275 11.803C66.6396 11.6098 66.715 11.3928 66.7536 11.1522L70.0234 11.1741C69.9847 11.6481 69.8436 12.1311 69.6002 12.6233C69.3567 13.1119 69.0107 13.564 68.5624 13.9796C68.1179 14.3916 67.5672 14.7234 66.9102 14.975C66.2531 15.2266 65.4898 15.3523 64.6202 15.3523C63.5303 15.3523 62.5524 15.1318 61.6867 14.6906C60.8248 14.2494 60.1426 13.6005 59.6402 12.7437C59.1416 11.8869 58.8923 10.8386 58.8923 9.59902C58.8923 8.35211 59.1474 7.30207 59.6576 6.44892C60.1678 5.59212 60.8557 4.94496 61.7215 4.50744C62.5872 4.06628 63.5535 3.8457 64.6202 3.8457C65.37 3.8457 66.0599 3.94232 66.6899 4.13556C67.3198 4.32879 67.8725 4.61135 68.3479 4.98324C68.8233 5.35148 69.2059 5.80541 69.4958 6.34501C69.7857 6.88461 69.9615 7.5026 70.0234 8.19898Z" fill="#0F172A"/>
<path d="M71.4858 15.1992V3.99883H76.6107C77.4919 3.99883 78.2629 4.15014 78.9238 4.45276C79.5847 4.75537 80.0988 5.19106 80.4659 5.75983C80.8331 6.3286 81.0167 7.01039 81.0167 7.80521C81.0167 8.60732 80.8273 9.28365 80.4486 9.83419C80.0737 10.3847 79.5461 10.8004 78.8659 11.0811C78.1895 11.3618 77.3991 11.5022 76.4947 11.5022H73.4337V9.13963H75.8454C76.2242 9.13963 76.5469 9.09588 76.8136 9.00838C77.0841 8.91723 77.2909 8.77321 77.4339 8.57633C77.5808 8.37945 77.6542 8.12241 77.6542 7.80521C77.6542 7.48437 77.5808 7.22368 77.4339 7.02316C77.2909 6.81898 77.0841 6.6695 76.8136 6.5747C76.5469 6.47626 76.2242 6.42704 75.8454 6.42704H74.7091V15.1992H71.4858ZM78.4427 10.0584L81.4109 15.1992H77.9093L75.0106 10.0584H78.4427Z" fill="#0F172A"/>
<path d="M93.8928 9.59902C93.8928 10.8459 93.6357 11.8978 93.1217 12.7546C92.6077 13.6078 91.9139 14.2549 91.0404 14.6961C90.167 15.1336 89.193 15.3523 88.1185 15.3523C87.0363 15.3523 86.0585 15.1318 85.185 14.6906C84.3154 14.2458 83.6236 13.5968 83.1096 12.7437C82.5994 11.8869 82.3443 10.8386 82.3443 9.59902C82.3443 8.35211 82.5994 7.30207 83.1096 6.44892C83.6236 5.59212 84.3154 4.94496 85.185 4.50744C86.0585 4.06628 87.0363 3.8457 88.1185 3.8457C89.193 3.8457 90.167 4.06628 91.0404 4.50744C91.9139 4.94496 92.6077 5.59212 93.1217 6.44892C93.6357 7.30207 93.8928 8.35211 93.8928 9.59902ZM90.5766 9.59902C90.5766 8.92817 90.4819 8.36304 90.2926 7.90365C90.107 7.44062 89.8307 7.09061 89.4635 6.85362C89.1002 6.61298 88.6519 6.49267 88.1185 6.49267C87.5852 6.49267 87.1349 6.61298 86.7677 6.85362C86.4044 7.09061 86.1281 7.44062 85.9387 7.90365C85.7532 8.36304 85.6604 8.92817 85.6604 9.59902C85.6604 10.2699 85.7532 10.8368 85.9387 11.2999C86.1281 11.7593 86.4044 12.1093 86.7677 12.3499C87.1349 12.5869 87.5852 12.7054 88.1185 12.7054C88.6519 12.7054 89.1002 12.5869 89.4635 12.3499C89.8307 12.1093 90.107 11.7593 90.2926 11.2999C90.4819 10.8368 90.5766 10.2699 90.5766 9.59902Z" fill="#0F172A"/>
<path d="M97.6495 15.1992L94.1478 3.99883H97.7422L99.3655 10.8897H99.4583L101.383 3.99883H104.212L106.137 10.9116H106.23L107.853 3.99883H111.447L107.946 15.1992H104.861L102.844 8.94275H102.751L100.734 15.1992H97.6495Z" fill="#0F172A"/>
<path d="M117.059 15.1992H112.491V3.99883H117.013C118.234 3.99883 119.289 4.22306 120.178 4.67151C121.071 5.11632 121.759 5.75801 122.242 6.59658C122.729 7.4315 122.973 8.43232 122.973 9.59902C122.973 10.7657 122.731 11.7684 122.248 12.6069C121.765 13.4419 121.081 14.0836 120.196 14.532C119.311 14.9768 118.265 15.1992 117.059 15.1992ZM115.714 12.6179H116.943C117.531 12.6179 118.031 12.5286 118.445 12.3499C118.862 12.1712 119.179 11.8632 119.396 11.4256C119.616 10.9881 119.726 10.3793 119.726 9.59902C119.726 8.81879 119.614 8.20991 119.39 7.7724C119.169 7.33488 118.845 7.0268 118.416 6.84815C117.991 6.6695 117.469 6.58017 116.85 6.58017H115.714V12.6179Z" fill="#0F172A"/>
<path d="M58.9387 30.5997V19.3994H67.287V21.8494H62.1621V23.7745H66.7768V26.2246H62.1621V30.5997H58.9387Z" fill="#0F172A"/>
<path d="M75.499 19.3994H78.7224V26.5746C78.7224 27.4278 78.5059 28.1661 78.0731 28.7895C77.6441 29.4093 77.045 29.8888 76.2759 30.2279C75.5067 30.5633 74.6139 30.731 73.5975 30.731C72.5733 30.731 71.6766 30.5633 70.9075 30.2279C70.1383 29.8888 69.5393 29.4093 69.1103 28.7895C68.6851 28.1661 68.4726 27.4278 68.4726 26.5746V19.3994H71.6959V26.3121C71.6959 26.6585 71.7771 26.9684 71.9394 27.2418C72.1017 27.5116 72.3259 27.7231 72.6119 27.8762C72.9018 28.0293 73.2303 28.1059 73.5975 28.1059C73.9685 28.1059 74.297 28.0293 74.583 27.8762C74.869 27.7231 75.0932 27.5116 75.2555 27.2418C75.4179 26.9684 75.499 26.6585 75.499 26.3121V19.3994Z" fill="#0F172A"/>
<path d="M90.5274 19.3994V30.5997H87.8374L83.5473 24.7152H83.4777V30.5997H80.2543V19.3994H82.9907L87.2112 25.2621H87.304V19.3994H90.5274Z" fill="#0F172A"/>
<path d="M96.6204 30.5997H92.0521V19.3994H96.5741C97.7954 19.3994 98.8505 19.6236 99.7394 20.072C100.632 20.5168 101.32 21.1585 101.803 21.9971C102.29 22.832 102.534 23.8328 102.534 24.9995C102.534 26.1663 102.292 27.1689 101.809 28.0075C101.326 28.8424 100.642 29.4841 99.7568 29.9325C98.8718 30.3773 97.8263 30.5997 96.6204 30.5997ZM95.2754 28.0184H96.5045C97.092 28.0184 97.5925 27.9291 98.006 27.7504C98.4234 27.5718 98.7403 27.2637 98.9568 26.8262C99.1771 26.3887 99.2872 25.7798 99.2872 24.9995C99.2872 24.2193 99.1752 23.6104 98.951 23.1729C98.7307 22.7354 98.406 22.4273 97.977 22.2487C97.5519 22.07 97.0301 21.9807 96.4117 21.9807H95.2754V28.0184Z" fill="#0F172A"/>
<path d="M107.249 19.3994V30.5997H104.025V19.3994H107.249Z" fill="#0F172A"/>
<path d="M119.049 19.3994V30.5997H116.359L112.069 24.7152H112V30.5997H108.776V19.3994H111.513L115.733 25.2621H115.826V19.3994H119.049Z" fill="#0F172A"/>
<path d="M128.284 23.0964C128.234 22.9031 128.155 22.7336 128.047 22.5877C127.939 22.4383 127.803 22.3125 127.641 22.2104C127.482 22.1047 127.297 22.0263 127.084 21.9752C126.876 21.9205 126.646 21.8932 126.394 21.8932C125.853 21.8932 125.392 22.0153 125.009 22.2596C124.63 22.5039 124.34 22.8557 124.139 23.3151C123.942 23.7745 123.844 24.3287 123.844 24.9777C123.844 25.6339 123.938 26.1954 124.128 26.6621C124.317 27.1288 124.599 27.4861 124.974 27.734C125.349 27.9819 125.815 28.1059 126.371 28.1059C126.862 28.1059 127.27 28.0385 127.595 27.9036C127.923 27.7687 128.168 27.5772 128.331 27.3293C128.493 27.0814 128.574 26.7897 128.574 26.4543L129.131 26.509H126.418V24.3433H131.682V25.8965C131.682 26.9173 131.452 27.7905 130.992 28.5161C130.536 29.238 129.906 29.7922 129.102 30.1786C128.302 30.5615 127.384 30.7529 126.348 30.7529C125.192 30.7529 124.178 30.5214 123.304 30.0583C122.431 29.5953 121.749 28.9354 121.258 28.0786C120.771 27.2218 120.528 26.2027 120.528 25.0214C120.528 24.0954 120.676 23.275 120.974 22.5604C121.275 21.8458 121.693 21.2424 122.226 20.7502C122.76 20.2543 123.376 19.8806 124.076 19.6291C124.775 19.3738 125.525 19.2462 126.325 19.2462C127.028 19.2462 127.682 19.341 128.284 19.5306C128.891 19.7166 129.427 19.9827 129.89 20.3291C130.358 20.6718 130.735 21.0783 131.021 21.5487C131.307 22.019 131.481 22.5349 131.543 23.0964H128.284Z" fill="#0F172A"/>
<path d="M58.9387 46.0003V34.7999H67.4957V37.25H62.1621V39.175H67.0551V41.6251H62.1621V43.5502H67.4725V46.0003H58.9387Z" fill="#0F172A"/>
<path d="M79.3673 34.7999V46.0003H76.6773L72.3873 40.1157H72.3177V46.0003H69.0943V34.7999H71.8307L76.0512 40.6626H76.144V34.7999H79.3673Z" fill="#0F172A"/>
<path d="M88.6026 38.4969C88.5524 38.3036 88.4731 38.1341 88.3649 37.9883C88.2567 37.8388 88.1214 37.713 87.9591 37.6109C87.8006 37.5052 87.6151 37.4268 87.4025 37.3758C87.1938 37.3211 86.9639 37.2937 86.7127 37.2937C86.1716 37.2937 85.7097 37.4159 85.3271 37.6601C84.9483 37.9044 84.6584 38.2563 84.4575 38.7156C84.2604 39.175 84.1618 39.7292 84.1618 40.3782C84.1618 41.0345 84.2565 41.596 84.4459 42.0626C84.6353 42.5293 84.9174 42.8866 85.2923 43.1345C85.6672 43.3825 86.1329 43.5064 86.6895 43.5064C87.1803 43.5064 87.5881 43.439 87.9127 43.3041C88.2412 43.1692 88.4867 42.9778 88.649 42.7298C88.8113 42.4819 88.8925 42.1902 88.8925 41.8548L89.449 41.9095H86.7358V39.7438H91.9999V41.297C91.9999 42.3178 91.7699 43.1911 91.31 43.9166C90.8539 44.6385 90.224 45.1927 89.42 45.5792C88.62 45.962 87.7021 46.1534 86.6663 46.1534C85.5107 46.1534 84.4961 45.9219 83.6226 45.4588C82.7492 44.9958 82.067 44.3359 81.5761 43.4791C81.0892 42.6223 80.8457 41.6032 80.8457 40.422C80.8457 39.4959 80.9945 38.6755 81.2921 37.9609C81.5935 37.2463 82.011 36.6429 82.5443 36.1507C83.0777 35.6549 83.6941 35.2811 84.3937 35.0296C85.0932 34.7744 85.843 34.6468 86.6431 34.6468C87.3465 34.6468 87.9997 34.7415 88.6026 34.9311C89.2094 35.1171 89.7447 35.3832 90.2085 35.7296C90.6762 36.0723 91.053 36.4788 91.339 36.9492C91.625 37.4195 91.7989 37.9354 91.8608 38.4969H88.6026Z" fill="#0F172A"/>
<path d="M96.7262 34.7999V46.0003H93.5029V34.7999H96.7262Z" fill="#0F172A"/>
<path d="M108.527 34.7999V46.0003H105.837L101.547 40.1157H101.477V46.0003H98.2539V34.7999H100.99L105.211 40.6626H105.304V34.7999H108.527Z" fill="#0F172A"/>
<path d="M110.052 46.0003V34.7999H118.609V37.25H113.275V39.175H118.168V41.6251H113.275V43.5502H118.585V46.0003H110.052Z" fill="#0F172A"/>
<path d="M10.8729 0C11.711 0 12.5501 0 13.3882 0C13.5027 0.0332563 13.6151 0.0831406 13.7317 0.0958563C18.8285 0.680775 22.8205 4.18344 23.7752 8.85497C24.1428 10.6567 24.1901 12.4682 24.189 14.2885C24.189 14.4909 24.2079 14.6944 24.2174 14.889C25.7003 14.889 27.1066 14.889 28.5896 14.889C28.5896 14.2464 28.5917 13.6331 28.5896 13.0198C28.5833 11.4392 28.7167 9.87222 29.1284 8.33461C30.1807 4.40743 32.8158 1.83301 36.9044 0.541881C37.7047 0.290503 38.5554 0.177041 39.383 0C40.2211 0 41.0603 0 41.8984 0C42.0276 0.0342344 42.1546 0.086075 42.287 0.100747C47.032 0.633825 51.2939 4.17073 52.362 8.49991C52.5668 9.33132 52.6572 10.1872 52.8 11.0313C52.8 11.2269 52.8 11.4216 52.8 11.6172C52.7286 12.1131 52.674 12.611 52.5847 13.103C52.0627 15.9963 50.6029 18.3888 48.0886 20.1689C45.8568 21.7486 43.2406 22.3189 40.4973 22.4401C39.2664 22.4949 38.0303 22.449 36.7963 22.449C36.7963 24.1832 36.7963 25.8294 36.7963 27.501C37.501 27.501 38.1637 27.4677 38.8222 27.5078C40.2463 27.5949 41.6915 27.6017 43.0841 27.8511C47.993 28.7305 51.086 31.4878 52.3725 35.9784C52.5952 36.754 52.6603 37.5688 52.799 38.365C52.799 38.5606 52.799 38.7553 52.799 38.9509C52.7191 39.5446 52.6698 40.1432 52.5563 40.7311C51.337 47.0674 44.4851 51.244 37.7866 49.6653C33.2685 48.6001 30.3372 45.9513 29.1483 41.7092C28.6148 39.8029 28.5623 37.8554 28.5917 35.9011C28.5959 35.6321 28.5927 35.3631 28.5927 35.0873C27.0867 35.0873 25.6615 35.0873 24.1775 35.0873C24.1775 35.3015 24.188 35.4923 24.1754 35.683C24.0724 37.3517 24.0598 39.0311 23.8361 40.6861C23.5841 42.5445 22.8741 44.3052 21.5791 45.7547C18.3601 49.3572 14.2011 50.6953 9.3164 49.6545C2.87625 48.2822 -1.17982 42.2315 0.307334 36.3041C1.44371 31.7783 4.46213 28.9241 9.38782 27.8893C11.3318 27.4814 13.3021 27.5019 15.2734 27.5039C15.5108 27.5039 15.7471 27.5039 15.9845 27.5039C15.9845 25.7941 15.9845 24.1587 15.9845 22.4812C15.3102 22.4812 14.6653 22.5135 14.0257 22.4744C12.5837 22.3864 11.1291 22.3531 9.70709 22.135C7.22115 21.7535 5.01772 20.7734 3.2932 19.0138C0.66652 16.3298 -0.340672 13.1783 0.170801 9.57487C0.772596 5.33763 4.50729 1.40068 8.94986 0.396141C9.58736 0.252356 10.2312 0.132047 10.8729 0ZM16.9549 15.7361C16.9549 14.4577 16.9654 13.3553 16.9496 12.254C16.9433 11.849 16.9034 11.4411 16.832 11.0421C16.6566 10.0659 16.4865 9.07113 15.7565 8.2945C14.4374 6.89187 12.3201 6.43802 10.4118 7.10804C8.64109 7.72915 7.4396 9.36359 7.39339 11.1819C7.34823 12.9592 8.52661 15.1062 11.0031 15.3439C12.9513 15.5307 14.9153 15.606 16.9549 15.7361ZM35.8143 15.5277C37.501 15.5277 39.1058 15.5405 40.7095 15.5189C41.1222 15.5131 41.536 15.4094 41.9446 15.3302C42.7228 15.1785 43.4706 14.935 44.022 14.3775C45.4167 12.9651 45.799 11.311 45.0113 9.54944C44.2247 7.78979 42.7134 6.86253 40.6412 6.8058C38.8568 6.75689 36.6923 7.81718 36.164 9.93971C35.6987 11.8079 35.8542 13.683 35.8143 15.5277ZM16.9622 34.3655C14.8323 34.385 12.7696 34.2481 10.7395 34.6638C9.98541 34.8183 9.25969 35.0756 8.72301 35.6292C7.35663 37.0387 6.98064 38.6751 7.75362 40.4191C8.52556 42.1601 10.0096 43.0894 12.0618 43.1744C13.8545 43.2488 16.0727 42.1787 16.6031 40.0562C17.0704 38.188 16.9118 36.3109 16.9622 34.3655ZM35.8164 34.3664C35.8164 35.5382 35.8069 36.6425 35.8216 37.7468C35.8269 38.1361 35.8678 38.5274 35.935 38.9118C36.1062 39.8909 36.2774 40.8866 36.999 41.6691C38.3097 43.0903 40.491 43.5559 42.3951 42.8644C44.1816 42.2159 45.3873 40.5384 45.38 38.7103C45.3716 36.7061 44.0325 35.0531 42.0822 34.6648C40.0321 34.2569 37.9547 34.3821 35.8164 34.3664ZM30.3193 21.3358C27.6633 21.3358 25.0712 21.3358 22.4698 21.3358C22.4698 23.7958 22.4698 26.2216 22.4698 28.6464C25.108 28.6464 27.7 28.6464 30.3193 28.6464C30.3193 26.1991 30.3193 23.7841 30.3193 21.3358Z" fill="#4272F9"/>
</svg>
